<?xml version="1.0" encoding="utf-8"?>
<!-- Generator: Adobe Illustrator 23.0.2, SVG Export Plug-In . SVG Version: 6.00 Build 0)  -->
<svg version="1.1" id="Слой_1" xmlns="http://www.w3.org/2000/svg" xmlns:xlink="http://www.w3.org/1999/xlink" x="0px" y="0px"
	 viewBox="0 0 120 120" style="enable-background:new 0 0 120 120;" xml:space="preserve">
<style type="text/css">
	.st0{fill:#FFD200;}
	.st1{fill:none;stroke:#B468FC;stroke-miterlimit:10;}
	.st2{fill:none;stroke:#FFD200;stroke-width:8;stroke-linecap:round;stroke-miterlimit:10;}
</style>
<path class="st0" d="M60.3,115.3C30,115.6,4.6,90.2,5.1,59.1C5.6,29.4,30.2,4.7,60.5,4.7c30.3,0,55.9,25.3,55.2,56.5
	C115.1,90.9,90.4,115.6,60.3,115.3z M59.1,104.7c24.8,0.6,45.4-18.8,46-43.4c0.6-24.8-18.9-45.6-43.4-46
	c-24.9-0.5-45.4,18.9-46,43.4C15.1,83.6,34.5,104.2,59.1,104.7z"/>
<path class="st1" d="M32.7,70.3"/>
<polyline class="st2" points="36.4,70.5 60.7,44.4 85.1,70.5 "/>
</svg>
