<?xml version="1.0" encoding="utf-8"?>
<!-- Generator: Adobe Illustrator 27.8.1, SVG Export Plug-In . SVG Version: 6.00 Build 0)  -->
<svg version="1.1" id="Слой_1" xmlns="http://www.w3.org/2000/svg" xmlns:xlink="http://www.w3.org/1999/xlink" x="0px" y="0px"
	 viewBox="0 0 120 120" style="enable-background:new 0 0 120 120;" xml:space="preserve">
<style type="text/css">
	.st0{fill:#9577A0;}
</style>
<path class="st0" d="M35.4,4.7c-17,0-30.7,13.8-30.7,30.7v49.1c0,17,13.8,30.7,30.7,30.7h49.1c17,0,30.7-13.8,30.7-30.7V35.4
	c0-17-13.8-30.7-30.7-30.7C84.5,4.7,35.4,4.7,35.4,4.7z M96.9,17c3.4,0,6.1,2.8,6.1,6.1s-2.8,6.1-6.1,6.1c-3.4,0-6.1-2.8-6.1-6.1
	S93.5,17,96.9,17z M60,29.3C77,29.3,90.7,43,90.7,60S77,90.7,60,90.7S29.3,77,29.3,60S43,29.3,60,29.3z M60,41.6
	c-10.2,0-18.4,8.2-18.4,18.4S49.8,78.4,60,78.4S78.4,70.2,78.4,60S70.2,41.6,60,41.6z"/>
</svg>
