<?xml version="1.0" encoding="utf-8"?>
<!-- Generator: Adobe Illustrator 27.8.1, SVG Export Plug-In . SVG Version: 6.00 Build 0)  -->
<svg version="1.1" id="Слой_1" xmlns="http://www.w3.org/2000/svg" xmlns:xlink="http://www.w3.org/1999/xlink" x="0px" y="0px"
	 viewBox="0 0 120 120" style="enable-background:new 0 0 120 120;" xml:space="preserve">
<style type="text/css">
	.st0{fill:#9577A0;}
</style>
<path class="st0" d="M60,4.5C29.4,4.5,4.6,29.3,4.6,59.9c0,30.6,24.8,55.4,55.4,55.4s55.4-24.8,55.4-55.4
	C115.4,29.3,90.6,4.5,60,4.5z M86.5,40.5c-0.2,2.2-1.4,10.1-2.7,18.6c-1.9,12-4,25.1-4,25.1s-0.3,3.7-3,4.3c-2.7,0.6-7.2-2.2-8-2.9
	c-0.6-0.5-12-7.7-16.2-11.2c-1.1-1-2.4-2.9,0.2-5.1c5.8-5.3,12.6-11.8,16.8-16c1.9-1.9,3.8-6.4-4.2-1C54,60.1,42.8,67.5,42.8,67.5
	s-2.6,1.6-7.4,0.2C30.6,66.3,25,64.3,25,64.3s-3.9-2.3,2.7-4.9c0,0,27.7-11.4,37.3-15.4c3.7-1.6,16.2-6.7,16.2-6.7
	S87,35.1,86.5,40.5z"/>
</svg>
