<?xml version="1.0" encoding="utf-8"?>
<!-- Generator: Adobe Illustrator 27.8.1, SVG Export Plug-In . SVG Version: 6.00 Build 0)  -->
<svg version="1.1" id="Слой_1" xmlns="http://www.w3.org/2000/svg" xmlns:xlink="http://www.w3.org/1999/xlink" x="0px" y="0px"
	 viewBox="0 0 120 120" style="enable-background:new 0 0 120 120;" xml:space="preserve">
<style type="text/css">
	.st0{fill:#9577A0;}
</style>
<g>
	<path class="st0" d="M93.2,32.5h15c-6.8-11.9-17.8-20.9-30.9-25.2C84.1,12.9,89.7,21.7,93.2,32.5z"/>
	<path class="st0" d="M62,4.6v27.9h27.1C83.6,16.7,73.6,5.7,62,4.6z"/>
	<path class="st0" d="M93.5,60c0-8-1-15.9-3.2-23.6H62v47.2h28.4C92.5,75.9,93.6,68,93.5,60z"/>
	<path class="st0" d="M110.2,36.4H94.4c4.1,15.5,4.1,31.7,0,47.2h15.8C117.3,68.6,117.3,51.4,110.2,36.4L110.2,36.4z"/>
	<path class="st0" d="M77.3,112.7c13.1-4.3,24.1-13.3,30.9-25.2h-15C89.7,98.3,84.1,107.1,77.3,112.7z"/>
	<path class="st0" d="M89.1,87.5H62v27.9C73.6,114.3,83.6,103.3,89.1,87.5z"/>
	<path class="st0" d="M26.8,87.5h-15c6.8,11.9,17.9,20.9,30.9,25.2C35.9,107.1,30.3,98.3,26.8,87.5z"/>
	<path class="st0" d="M58,115.4V87.5H30.9C36.4,103.3,46.4,114.3,58,115.4z"/>
	<path class="st0" d="M22.5,60c0-8,1-15.9,3.1-23.6H9.8c-7,14.9-7,32.2,0,47.2h15.8C23.5,75.9,22.5,68,22.5,60z"/>
	<path class="st0" d="M42.7,7.3c-13,4.3-24,13.3-30.9,25.2h15C30.3,21.7,35.9,12.9,42.7,7.3z"/>
	<path class="st0" d="M30.9,32.5H58V4.6C46.4,5.7,36.4,16.7,30.9,32.5z"/>
	<path class="st0" d="M26.5,60c0,8,1,15.9,3.2,23.6H58V36.4H29.6C27.5,44.1,26.4,52,26.5,60L26.5,60z"/>
</g>
</svg>
