<?xml version="1.0" encoding="utf-8"?>
<!-- Generator: Adobe Illustrator 27.8.1, SVG Export Plug-In . SVG Version: 6.00 Build 0)  -->
<svg version="1.1" id="Слой_1" xmlns="http://www.w3.org/2000/svg" xmlns:xlink="http://www.w3.org/1999/xlink" x="0px" y="0px"
	 viewBox="0 0 120 120" style="enable-background:new 0 0 120 120;" xml:space="preserve">
<style type="text/css">
	.st0{fill:#9577A0;}
</style>
<g id="surface1493917">
	<path class="st0" d="M113.8,27.4c-1.3-4.8-5.1-8.6-9.9-9.9C95.1,15.1,60,15.1,60,15.1s-35.1,0-43.9,2.3c-4.8,1.3-8.6,5.1-9.9,9.9
		C3.9,36.1,3.9,60,3.9,60s0,23.9,2.3,32.6c1.3,4.8,5.1,8.6,9.9,9.9c8.8,2.3,43.9,2.3,43.9,2.3s35.1,0,43.9-2.3
		c4.8-1.3,8.6-5.1,9.9-9.9c2.3-8.8,2.3-32.6,2.3-32.6S116.1,36.1,113.8,27.4z M48.8,79.4V40.6L82.5,60L48.8,79.4z"/>
</g>
</svg>
